<svg xmlns="http://www.w3.org/2000/svg" viewBox="0 0 764.73 618.53"><defs><style>.cls-1{fill:#1d1d1b;}</style></defs><g id="Capa_1" data-name="Capa 1"><path class="cls-1" d="M411.09,65.46c23-.74,45.81.92,68.58,2.42,5.22.34,9,3.37,12.33,7.07,6.12,6.91,8.61,15.49,10.71,24.2.43,1.79.74,3.2,2.92,3.78,21.32,5.74,40.61,16.17,59.92,26.45,33.4,17.78,63.63,39.84,89.89,67.18C688.89,231.39,712.93,272,730.17,317c7.22,18.84,11,38.33,13.66,58.17,1.17,8.68,2.74,17.31,4,26,1.62,11,1.78,22.08,1.55,33.14-.17,8,1.65,14,9.76,17.88,11.47,5.44,18,15.46,22.14,27.25,6.47,18.21,9.86,36.74,7.13,56.06-2.24,15.93-10,24.75-25.69,27.77-16.47,3.18-89,17.7-96.38,21.08s-18.28,9.75-22,13.46c-7.57,6.2-14,13.55-20.22,21-16.87,20-38.39,33.45-62,43.82-21.33,9.37-43.88,14-67,16.5-21.64,2.31-43.34,2.91-65.08,3.31-32.42.6-64.83,1.77-97.25,1.31-19.84-.28-39.65-1.5-59.12-5.87-23.24-5.22-43.43-16.87-62.88-30-14.49-9.79-28.16-20.55-39.54-34-1-1.13-2.08-2.13-3.12-3.19-7.92-8.06-17-13-28.41-15.77-24.66-6-49.55-10.93-74.07-17.42-4.43-1.17-9-1.66-13.51-2.61-16.81-3.56-24.35-11.56-26.57-28.67-2.91-22.39.78-43.83,9.81-64.43A29.37,29.37,0,0,1,47.12,468.1c2.53-1.56,5-3.28,7.37-5,4.95-3.59,7.38-7.92,6.32-14.56-1.32-8.22-.87-16.55.28-24.93,1.48-10.81,2-21.76,2.43-32.68.57-15.15,4.23-29.52,9.06-43.81C80.06,325,86,302.37,96.44,281.28a398.06,398.06,0,0,1,56.78-85c21.05-24.23,44.63-45.47,72.29-62S282.16,105,313.73,98.54c3.34-.69,4.73-2.51,5.39-5.56,2.47-11.35,9.58-18.68,20-23.33,5-2.23,10.32-2.09,15.5-2.48C373.47,65.77,392.36,64.79,411.09,65.46Zm112.43,584c20.28-5.2,39.42-12.38,55.56-26.16a360.39,360.39,0,0,0,27.59-26.85c16.59-17.53,24.17-29.2,47.16-34.26,26.65-6.14,65.85-15.44,92.28-20.82,13.35-1.77,16.81-7.08,15.45-21.4-2.6-11.16-4.22-29.69-8.32-39.24-2.38-5.54-7.81-7.19-13.77-9-3.83-1.16-6.58-1-8.83,3.33-3.71,7.11-8.62,13.44-16.23,17-7.28,3.42-11.12,2.65-16.4-3.32-4.29-4.85-4.19-9.46.1-14.26,6.67-7.45,13.56-14.73,18.61-23.46,1.46-2.53,3-5,2.71-8.26-2.44-25.38-5.12-50.73-9.37-75.88-3.42-20.24-6.66-40.66-14.95-59.56C673,256.94,641.55,213.9,596.85,180.78c-34.17-25.31-70.07-46.76-111.21-58.6-3.62-1-8.2-.77-10.61-3.43s-.58-7.26-1-11c-.06-.54-.05-1.09-.13-1.62C472.73,98,470.43,95.48,462.29,94c-12.15-2.28-24.51-1.34-36.76-2-18.9-1-37.82.22-56.73.76a62.2,62.2,0,0,0-16,2.29c-8.19,2.44-10.5,5.5-10.55,14a39.4,39.4,0,0,0,0,4.86c.42,3.64-1.36,4.94-4.74,5.52a268.62,268.62,0,0,0-54.37,15.73C249,148.75,219.67,169.72,193.3,195c-25.44,24.4-46.26,52.4-63.81,82.93-18,31.31-31,64.38-37.25,100.08a445.36,445.36,0,0,0-6.06,57.91c-.5,11.6,2.52,22.16,10,31.29,3.35,4.07,6.46,8.33,9.51,12.63,3.4,4.78,6,9.94,6.67,15.89.17,1.42.24,2.73-.88,3.75-2.29,2.09-4.48,4.34-7.36,5.65-3.63,1.65-6.81,1.52-10-1.5-6.06-5.78-12.54-11.13-17.45-18-1.21-1.69-2.46-2-4.49-1.38C63.46,487,58.34,486.76,57,495.84c-1.56,10.53-2.87,20.84-4.19,31.51-2.29,18.53,5.24,21.11,14,23.81,11.12,2.07,46.91,9.39,65.3,13,16.69,3.29,32.91,7.75,46.17,19.28a171.7,171.7,0,0,1,17.48,17.48c15.49,18,34.81,30.62,55.92,40.79,7.9,3.81,27.64,11,44.36,16.25,17.28,5.75,66.53,3.5,91.92,3.59,24.48.09,49.23-1.25,82.56-3.59A313.83,313.83,0,0,0,523.52,649.45Z" transform="translate(-24.65 -65.25)"/><path class="cls-1" d="M376.92,658" transform="translate(-24.65 -65.25)"/></g><g id="Capa_2" data-name="Capa 2"><path class="cls-1" d="M518.58,386.57c5.71,1.94,11.24,1.5,16.58,1.93,17.9,1.45,35.84,2.34,53.76,3.55,14.79,1,29.58,2.11,44.37,3.23,4.54.34,6.6,4,4.46,8.53-1.93,4.05-4.43,7.82-6.68,11.71-1.19,2.06-2.21,1.54-3.18-.19s-2.07-3.53-3-5.33a3.21,3.21,0,0,0-3.26-1.95c-1.61.06-2,1.15-2.36,2.36,0,.13-.11.25-.16.38-3.69,8.58-3.76,8.67-10.85,2.72-2.21-1.85-3.4-1.88-5.09.57s-2.78,6.34-5.55,6.6c-2.6.24-4-3.63-6-5.61-2.24-2.21-3.59-1.82-4.92.75-.94,1.82-2,3.55-3,5.35-2.14,4.05-2.47,4.08-5.21.2-1-1.33-1.85-2.7-2.79-4-1.53-2.18-2.94-2-4.38.15-1.58,2.38-3.21,4.74-4.92,7-1.29,1.73-2.3,1.69-3.63-.31-4.84-7.21-4.92-7.16-10.5-.4-3.81,4.61-4.23,4.62-8.16.09-3.66-4.23-3.85-4.2-6.53.77-3.36,6.22-3.36,6.22-8.45,1.12-.58-.58-1.21-1.11-1.75-1.72-1.87-2.11-3.46-2.25-5.07.37-1.35,2.2-3,4.21-4.45,6.36-1.22,1.84-2.06,2-3.53,0-5.19-7-5.33-6.9-9.87.66-.22.35-.42.7-.63,1.05-2.48,4.13-2.48,4.13-5.13.26-4.92-7.2-5.5-7.18-10,.3-3.9,6.52-3.43,6.94-8.08.16-1.88-2.73-3.14-2.92-5.67-.83-9.93,8.22-17.78,18.42-26.56,27.72q-21.6,22.89-42.91,46a272.66,272.66,0,0,0-18.19,21.53c-.84,1.12-2.57,2.2-1.64,3.81.83,1.44,2.69,1.05,4.16,1.07a358.09,358.09,0,0,0,38.75-1.38c9.35-.84,18.73-1.5,28.11-1.78,12.27-.36,24.33-2.47,36.49-3.71,33.5-3.41,66.3-10.82,99.32-16.91,12.16-2.24,24.09-5.72,36.16-8.46a26.22,26.22,0,0,1,11.33-.45,13.51,13.51,0,0,1,10.75,14.75c-.21,2.32-1.75,3.27-3.33,4.28-12.1,7.72-25.43,12.47-39.28,15.68-29.7,6.88-59.56,12.84-90,15.8-19.36,1.89-38.75,3.36-58.14,4.9-45.85,3.63-91.77,2.3-137.66,2.07-15.58-.08-31.16-2.6-46.72-4.19-13.53-1.38-27.12-2.45-40.51-4.69-19.44-3.27-39-5.88-58.05-11.36-6.3-1.82-12.46-4-17.85-7.9-4.12-3-7.21-6.6-7.12-12.14a5.42,5.42,0,0,1,2.5-4.78c6.22-4.39,12.87-5.54,20.14-3.18,21,6.83,42.68,11.15,64.49,14.26s43.73,5.31,65.71,7,44.11,1.07,66.14,2c1,0,2.05.36,2.43-.85.47-1.51-.76-2.12-1.77-2.83a59.38,59.38,0,0,1-15.53-16.07,36.6,36.6,0,0,1-2.22-3.9c-3.39-6.82-3.19-7.33,3-11.61,9.22-6.36,15.86-15.29,23.08-23.6,5.1-5.88,10.2-11.72,16.44-16.44a20.23,20.23,0,0,0,4.93-5.41c1.28-2,1.56-3.95.23-6.09-.93-1.51-1.54-3.45-3.51-3.68-2.13-.24-2.24,2-3.2,3.24s-1.69,2.49-2.7,3.59c-3.09,3.36-4.5,3.12-6.6-1-2.46-4.84-4.82-6-10.24-5-5.71,1-6.1.55-6.64-5.37-1.4-15.64-.5-31.31-.72-47,0-.41,0-.82,0-1.23.51-8.78,1.21-9.55,9.89-9.42,20.83.33,41.62,1.26,62.38,3.12,7.45.66,14.95.84,22.42,1.31a4.17,4.17,0,0,0,3.27-1.24q29.79-26.17,57.34-54.71a328.89,328.89,0,0,0,23.69-27.05c7.13-9.19,16.21-16.53,23.84-25.24,2.63-3,4-5.21.26-8.36-3.17-2.68-3-5.67-.5-9.28,5.27-7.66,6.14-5.61-1.65-12.88a79.27,79.27,0,0,0-11.35-8.68,4.78,4.78,0,0,0-6,.12,94,94,0,0,1-13.09,7.55,5,5,0,0,1-5.69-.41,55.9,55.9,0,0,1-15.56-17.64,6.48,6.48,0,0,1,0-6.91A61.14,61.14,0,0,1,548,191.81c2.91-1.22,4.91-.64,7.22,1.58,23.56,22.67,48.39,44,71.65,67,2.81,2.78,5,5.58,5.79,9.54.68,3.47,2,6.81,2.63,10.28,1.1,6,4.53,10.35,8.86,14.29,3.18,2.9,6.71,4.57,11.09,4.23,2.62-.2,4.78.39,6.08,3.06s.44,4.71-1.15,6.79a88.56,88.56,0,0,1-18.74,18.69c-4.67,3.33-7.54,2.25-9.39-3.25a16.21,16.21,0,0,1-.61-6.87,7.71,7.71,0,0,0-3-7.13c-11.44-10-11.4-10-26.9-9.14a6.27,6.27,0,0,0-4.32,1.94c-26.46,26.54-52.52,53.46-77.22,81.67A23.94,23.94,0,0,0,518.58,386.57Z" transform="translate(-24.65 -65.25)"/></g><g id="Capa_3" data-name="Capa 3"><path class="cls-1" d="M333.89,405.88c.35,10-.61,20.54-.63,31.11,0,3.7-1.46,5.21-5,5-12-.55-23.94-1-35.91-1.65-15.48-.8-12.06-2.53-15.76,10.17-2.67,9.15-5,18.4-7.23,27.68-3,12.69-11.41,19.52-23.66,22.06-11.1,2.31-22.06.26-33-1.65-3.79-.67-7.66-1-11.51-1.31a13,13,0,0,1-6.09-2.25c-4.33-2.85-6.87-6.23-6.51-12.06.69-11.24,1.94-22.35,4.87-33.2,4.93-18.3,10.45-36.42,16.22-54.47a57.9,57.9,0,0,1,9.07-17A12.45,12.45,0,0,1,229.63,373a282.67,282.67,0,0,1,42.67,3.83c6.08,1,12.3,1.05,18.46,1.46q19.29,1.29,38.57,2.48c3.34.2,4.73,1.65,4.62,5.12C333.74,392.37,333.89,398.83,333.89,405.88Zm-63.81,6.93c-.32-3.71.89-7.85-2.43-10.31-4.1-3-11.21-4.47-15.55,1.3a21.36,21.36,0,0,0-3.35,6.48c-3.92,12.29-6.95,24.82-9.84,37.38-2,8.9-4.21,17.82-4.81,27-.34,5.2,5.76,9.37,10.34,6.91,4.17-2.25,8-5,10.09-9.74,5.42-12.46,8.9-25.54,12.43-38.6A91.72,91.72,0,0,0,270.08,412.81Z" transform="translate(-24.65 -65.25)"/></g><g id="Capa_4" data-name="Capa 4"><path class="cls-1" d="M364.68,398.25c0,15.47-.29,30.93-1.46,46.37-.25,3.33-1.66,4.73-4.89,4.89a101.89,101.89,0,0,1-13.65.16c-3.64-.3-5.66-1.49-6.22-5.34a118.86,118.86,0,0,1-.46-24.72c.68-10.61.18-21.21.5-31.81.13-4.41.65-8.81,1-13.21.26-3.48,1.95-5.22,5.61-5.37a74.93,74.93,0,0,1,13.64.35c4.27.6,6.08,2.56,5.92,7C364.4,383.79,364.64,391,364.68,398.25Z" transform="translate(-24.65 -65.25)"/></g><g id="Capa_5" data-name="Capa 5"><path class="cls-1" d="M399.6,369c-8.4.49-15.4-3-21-9.62A360,360,0,0,1,342.75,309c-2.53-4.27-5.64-6-10.46-6.22-5.65-.27-10,1-14,5.48A120.55,120.55,0,0,1,301,323.73c-2.72,2.07-5.17,2.33-8.12.32-6.08-4.13-12.17-8.17-16.65-14.18-1.7-2.29-2.1-4.28.25-6.37.9-.8,1.47-2,2.38-2.77,20.28-17.74,36.65-39.3,56.31-57.65,7.53-7,16.07-13,22.51-21.2,1.09-1.39,2.39-1,3.64-.22,7.45,4.51,13.62,10.29,17.71,18.1,1.53,2.91,1.22,5.23-1.62,7.4a76,76,0,0,0-14.38,14.35c-.49.65-1,1.3-1.43,2-7.11,10.64-5.87,17.9,5.12,24.47,10.47,6.27,21.51,11.57,32.08,17.68,9,5.18,17.29,11.28,23.74,19.59,9.33,12,8.59,27.57-1.81,36.77C415.75,366.42,408.07,369,399.6,369ZM401,350.62c4.81,0,8.12-3.59,8.15-8.77a9.79,9.79,0,0,0-9.75-9.43c-4.28.16-8.68,4.72-8.56,8.87C390.94,346,396,350.66,401,350.62Z" transform="translate(-24.65 -65.25)"/></g><g id="Capa_6" data-name="Capa 6"><path class="cls-1" d="M240.43,221.53c-.73-4.13-3-6.37-4.8-8.84a73.6,73.6,0,0,1-4.58-6.18c-4.14-7-3.48-10.24,2.5-15.74,7.56-7,14.8-14.24,22.73-20.79,1.68-1.38,3.36-2.87,5.69-2.78,2.73.1,3.19-1.46,2.91-3.62-.43-3.26.6-5.53,3.49-7.45,2.31-1.53,3.86-4.14,6-6,4.86-4.3,8.85-4.14,13.32.38,12,12.1,24,24.15,38.26,33.71,4.5,3,7.78,7.48,11.54,11.35,2.26,2.32,4.58,4.6,7,6.75,3.78,3.34,3.9,4.1.29,7.71q-26.94,27-53.94,53.88a183.5,183.5,0,0,0-14.73,16.18,35.23,35.23,0,0,1-11.19,9.83c-2.17,1.12-3.93,1.08-5.83-.75-15.19-14.63-31.57-27.93-47.45-41.8-5.1-4.46-9.71-9.39-12.93-15.47-1.16-2.2-1.14-3.95.84-5.74,4.39-4,7.56-9.2,12.45-12.73,5.44-3.92,6.79-4,12.26-.45A87.16,87.16,0,0,0,240.43,221.53Z" transform="translate(-24.65 -65.25)"/></g></svg>